<svg width="21" height="25" viewBox="0 0 21 25" fill="none" xmlns="http://www.w3.org/2000/svg">
<path opacity="0.3" fill-rule="evenodd" clip-rule="evenodd" d="M8.0105 17.9982C12.4288 17.9982 16.0105 14.4164 16.0105 9.99817C16.0105 5.57989 12.4288 1.99817 8.0105 1.99817C3.59222 1.99817 0.010498 5.57989 0.010498 9.99817C0.010498 14.4164 3.59222 17.9982 8.0105 17.9982Z" fill="#99EFD0"/>
<path opacity="0.3" fill-rule="evenodd" clip-rule="evenodd" d="M2.54865 9.99817L6.57849 20.3606L7.98643 19.8131L9.38499 20.3656L13.4808 9.99817H2.54865ZM5.47233 11.9982H10.5402L7.98632 18.4627L5.47233 11.9982Z" fill="#99EFD0"/>
<path opacity="0.3" d="M6.0105 22.9982H10.0105C10.0105 24.1027 9.11507 24.9982 8.0105 24.9982C6.90593 24.9982 6.0105 24.1027 6.0105 22.9982Z" fill="#99EFD0"/>
<path fill-rule="evenodd" clip-rule="evenodd" d="M4.0105 17.9982C4.0105 17.4459 4.45821 16.9982 5.0105 16.9982H11.0105C11.5628 16.9982 12.0105 17.4459 12.0105 17.9982C12.0105 18.5505 11.5628 18.9982 11.0105 18.9982C11.5628 18.9982 12.0105 19.4459 12.0105 19.9982C12.0105 20.5505 11.5628 20.9982 11.0105 20.9982C11.5628 20.9982 12.0105 21.4459 12.0105 21.9982C12.0105 22.5505 11.5628 22.9982 11.0105 22.9982H5.0105C4.45821 22.9982 4.0105 22.5505 4.0105 21.9982C4.0105 21.4459 4.45821 20.9982 5.0105 20.9982C4.45821 20.9982 4.0105 20.5505 4.0105 19.9982C4.0105 19.4459 4.45821 18.9982 5.0105 18.9982C4.45821 18.9982 4.0105 18.5505 4.0105 17.9982Z" fill="#99EFD0"/>
</svg>
