<svg width="36" height="36" viewBox="0 0 36 36" fill="none" xmlns="http://www.w3.org/2000/svg">
<path opacity="0.3" fill-rule="evenodd" clip-rule="evenodd" d="M10.8848 28.3935L8.96882 30.702C5.21588 27.5872 3.00049 22.9728 3.00049 17.9998C3.00049 13.0336 5.20972 8.42494 8.95376 5.31006L10.8724 7.61629C7.80639 10.1671 6.00049 13.9344 6.00049 17.9998C6.00049 22.0708 7.81143 25.8428 10.8848 28.3935ZM25.1162 28.3935L27.0322 30.702C30.7851 27.5872 33.0005 22.9728 33.0005 17.9998C33.0005 13.0336 30.7913 8.42494 27.0472 5.31006L25.1285 7.61629C28.1946 10.1671 30.0005 13.9344 30.0005 17.9998C30.0005 22.0708 28.1895 25.8428 25.1162 28.3935ZM21.2682 23.7896L23.1768 26.1042C25.5798 24.1227 27.0005 21.1758 27.0005 17.9998C27.0005 14.8342 25.5891 11.8959 23.1997 9.91424L21.2846 12.2234C22.9939 13.6411 24.0005 15.7366 24.0005 17.9998C24.0005 20.2704 22.9872 22.3722 21.2682 23.7896ZM12.8241 26.1042L14.7327 23.7896C13.0137 22.3722 12.0005 20.2704 12.0005 17.9998C12.0005 15.7366 13.0071 13.6411 14.7164 12.2234L12.8013 9.91424C10.4118 11.8959 9.00049 14.8342 9.00049 17.9998C9.00049 21.1758 10.4212 24.1227 12.8241 26.1042Z" fill="#99EFD0"/>
<path fill-rule="evenodd" clip-rule="evenodd" d="M18.0005 21C19.6573 21 21.0005 19.6569 21.0005 18C21.0005 16.3431 19.6573 15 18.0005 15C16.3436 15 15.0005 16.3431 15.0005 18C15.0005 19.6569 16.3436 21 18.0005 21Z" fill="#99EFD0"/>
</svg>
