<svg width="36" height="36" viewBox="0 0 36 36" fill="none" xmlns="http://www.w3.org/2000/svg">
<path opacity="0.3" fill-rule="evenodd" clip-rule="evenodd" d="M23.6769 21H30.0006V3C25.03 3 21.0006 7.02944 21.0006 12V18.2573L11.7432 8.99997C9.40005 11.3431 9.40005 15.1421 11.7432 17.4853L19.4674 25.2095L23.6769 21Z" fill="#99EFD0"/>
<path fill-rule="evenodd" clip-rule="evenodd" d="M6.50049 18C3.73906 18 1.50049 20.2386 1.50049 23V26.5C1.50049 29.2614 3.73906 31.5 6.50049 31.5H29.5005C32.2619 31.5 34.5005 29.2614 34.5005 26.5V23C34.5005 20.2386 32.2619 18 29.5005 18H6.50049ZM31.5005 24.75C31.5005 25.9926 30.4931 27 29.2505 27C28.0078 27 27.0005 25.9926 27.0005 24.75C27.0005 23.5074 28.0078 22.5 29.2505 22.5C30.4931 22.5 31.5005 23.5074 31.5005 24.75Z" fill="#99EFD0"/>
</svg>
