<svg width="40" height="40" viewBox="0 0 40 40" fill="none" xmlns="http://www.w3.org/2000/svg">
<path opacity="0.3" fill-rule="evenodd" clip-rule="evenodd" d="M12.0937 31.5486L9.96486 34.1136C5.79492 30.6527 3.33337 25.5256 3.33337 20C3.33337 14.482 5.78807 9.36125 9.94813 5.90027L12.08 8.46274C8.67326 11.297 6.66671 15.4829 6.66671 20C6.66671 24.5233 8.67887 28.7144 12.0937 31.5486ZM27.9064 31.5486L30.0352 34.1136C34.2052 30.6527 36.6667 25.5256 36.6667 20C36.6667 14.482 34.212 9.36125 30.052 5.90027L27.9201 8.46274C31.3268 11.297 33.3334 15.4829 33.3334 20C33.3334 24.5233 31.3212 28.7144 27.9064 31.5486ZM23.6309 26.4331L25.7515 29.0049C28.4215 26.8032 30 23.5289 30 20C30 16.4826 28.4319 13.2179 25.7769 11.016L23.649 13.5818C25.5483 15.1569 26.6667 17.4853 26.6667 20C26.6667 22.5229 25.5409 24.8581 23.6309 26.4331ZM14.2485 29.0049L16.3692 26.4331C14.4592 24.8581 13.3334 22.5229 13.3334 20C13.3334 17.4853 14.4518 15.1569 16.3511 13.5818L14.2232 11.016C11.5682 13.2179 10 16.4826 10 20C10 23.5289 11.5786 26.8032 14.2485 29.0049Z" fill="#884AF2"/>
<path fill-rule="evenodd" clip-rule="evenodd" d="M20 23.3333C21.8409 23.3333 23.3333 21.8409 23.3333 20C23.3333 18.159 21.8409 16.6666 20 16.6666C18.159 16.6666 16.6666 18.159 16.6666 20C16.6666 21.8409 18.159 23.3333 20 23.3333Z" fill="#884AF2"/>
</svg>
