<svg width="40" height="40" viewBox="0 0 40 40" fill="none" xmlns="http://www.w3.org/2000/svg">
<path opacity="0.3" fill-rule="evenodd" clip-rule="evenodd" d="M26.3071 23.3334H33.3334V3.33337C27.8105 3.33337 23.3334 7.81053 23.3334 13.3334V20.286L13.0474 10C10.4439 12.6035 10.4439 16.8246 13.0474 19.4281L21.6299 28.0106L26.3071 23.3334Z" fill="#884AF2"/>
<path fill-rule="evenodd" clip-rule="evenodd" d="M6.66675 20C3.90532 20 1.66675 22.2386 1.66675 25V30C1.66675 32.7614 3.90533 35 6.66675 35H33.3334C36.0948 35 38.3334 32.7614 38.3334 30V25C38.3334 22.2386 36.0948 20 33.3334 20H6.66675ZM35.0001 27.5C35.0001 28.8807 33.8808 30 32.5001 30C31.1194 30 30.0001 28.8807 30.0001 27.5C30.0001 26.1193 31.1194 25 32.5001 25C33.8808 25 35.0001 26.1193 35.0001 27.5Z" fill="#884AF2"/>
</svg>
