<svg id="dotsver" viewBox="0 0 91 199"  xmlns="http://www.w3.org/2000/svg">
<circle cx="88.8843" cy="197.519" r="1.48066" transform="rotate(-180 88.8843 197.519)" />
<circle cx="67.1675" cy="197.519" r="1.48066" transform="rotate(-180 67.1675 197.519)" />
<circle cx="45.452" cy="197.519" r="1.48066" transform="rotate(-180 45.452 197.519)" />
<circle cx="23.7352" cy="197.519" r="1.48066" transform="rotate(-180 23.7352 197.519)" />
<circle cx="2.01885" cy="197.519" r="1.48066" transform="rotate(-180 2.01885 197.519)" />
<circle cx="88.8843" cy="175.803" r="1.48066" transform="rotate(-180 88.8843 175.803)" />
<circle cx="67.1675" cy="175.803" r="1.48066" transform="rotate(-180 67.1675 175.803)" />
<circle cx="45.452" cy="175.803" r="1.48066" transform="rotate(-180 45.452 175.803)" />
<circle cx="23.7352" cy="175.803" r="1.48066" transform="rotate(-180 23.7352 175.803)" />
<circle cx="2.01934" cy="175.803" r="1.48066" transform="rotate(-180 2.01934 175.803)" />
<circle cx="88.8843" cy="154.087" r="1.48066" transform="rotate(-180 88.8843 154.087)" />
<circle cx="67.1675" cy="154.087" r="1.48066" transform="rotate(-180 67.1675 154.087)" />
<circle cx="45.452" cy="154.087" r="1.48066" transform="rotate(-180 45.452 154.087)" />
<circle cx="23.7352" cy="154.087" r="1.48066" transform="rotate(-180 23.7352 154.087)" />
<circle cx="2.01885" cy="154.087" r="1.48066" transform="rotate(-180 2.01885 154.087)" />
<circle cx="88.8843" cy="132.37" r="1.48066" transform="rotate(-180 88.8843 132.37)" />
<circle cx="67.1675" cy="132.37" r="1.48066" transform="rotate(-180 67.1675 132.37)" />
<circle cx="45.452" cy="132.37" r="1.48066" transform="rotate(-180 45.452 132.37)" />
<circle cx="23.7352" cy="132.37" r="1.48066" transform="rotate(-180 23.7352 132.37)" />
<circle cx="2.01885" cy="132.37" r="1.48066" transform="rotate(-180 2.01885 132.37)" />
<circle cx="88.8843" cy="110.654" r="1.48066" transform="rotate(-180 88.8843 110.654)" />
<circle cx="67.1675" cy="110.654" r="1.48066" transform="rotate(-180 67.1675 110.654)" />
<circle cx="45.452" cy="110.654" r="1.48066" transform="rotate(-180 45.452 110.654)" />
<circle cx="23.7352" cy="110.654" r="1.48066" transform="rotate(-180 23.7352 110.654)" />
<circle cx="2.01885" cy="110.654" r="1.48066" transform="rotate(-180 2.01885 110.654)" />
<circle cx="88.8843" cy="88.9378" r="1.48066" transform="rotate(-180 88.8843 88.9378)" />
<circle cx="67.1675" cy="88.9378" r="1.48066" transform="rotate(-180 67.1675 88.9378)" />
<circle cx="45.452" cy="88.9378" r="1.48066" transform="rotate(-180 45.452 88.9378)" />
<circle cx="23.7352" cy="88.9378" r="1.48066" transform="rotate(-180 23.7352 88.9378)" />
<circle cx="2.01934" cy="88.9378" r="1.48066" transform="rotate(-180 2.01934 88.9378)" />
<circle cx="88.8843" cy="67.2214" r="1.48066" transform="rotate(-180 88.8843 67.2214)" />
<circle cx="67.1675" cy="67.2214" r="1.48066" transform="rotate(-180 67.1675 67.2214)" />
<circle cx="45.452" cy="67.2214" r="1.48066" transform="rotate(-180 45.452 67.2214)" />
<circle cx="23.7352" cy="67.2214" r="1.48066" transform="rotate(-180 23.7352 67.2214)" />
<circle cx="2.01885" cy="67.2215" r="1.48066" transform="rotate(-180 2.01885 67.2215)" />
<circle cx="88.8843" cy="45.5049" r="1.48066" transform="rotate(-180 88.8843 45.5049)" />
<circle cx="67.1675" cy="45.5049" r="1.48066" transform="rotate(-180 67.1675 45.5049)" />
<circle cx="45.452" cy="45.5049" r="1.48066" transform="rotate(-180 45.452 45.5049)" />
<circle cx="23.7352" cy="45.5049" r="1.48066" transform="rotate(-180 23.7352 45.5049)" />
<circle cx="2.01885" cy="45.5049" r="1.48066" transform="rotate(-180 2.01885 45.5049)" />
<circle cx="88.8843" cy="23.7889" r="1.48066" transform="rotate(-180 88.8843 23.7889)" />
<circle cx="67.1675" cy="23.7889" r="1.48066" transform="rotate(-180 67.1675 23.7889)" />
<circle cx="45.452" cy="23.7889" r="1.48066" transform="rotate(-180 45.452 23.7889)" />
<circle cx="23.7352" cy="23.7889" r="1.48066" transform="rotate(-180 23.7352 23.7889)" />
<circle cx="2.01885" cy="23.7889" r="1.48066" transform="rotate(-180 2.01885 23.7889)" />
<circle cx="88.8843" cy="2.07256" r="1.48066" transform="rotate(-180 88.8843 2.07256)" />
<circle cx="67.1675" cy="2.07256" r="1.48066" transform="rotate(-180 67.1675 2.07256)" />
<circle cx="45.452" cy="2.07256" r="1.48066" transform="rotate(-180 45.452 2.07256)" />
<circle cx="23.7352" cy="2.07256" r="1.48066" transform="rotate(-180 23.7352 2.07256)" />
<circle cx="2.01885" cy="2.07256" r="1.48066" transform="rotate(-180 2.01885 2.07256)" />
</svg>
